# Blender v2.91.2 OBJ File: 'espada.blend'
# www.blender.org
mtllib espada.mtl
o Cube
v 1.254109 0.154765 0.048844
v 1.243253 -0.010367 0.039863
v 1.601824 -0.006013 0.023090
v 1.236488 -0.160333 -0.001413
v -0.411000 0.155709 0.046391
v -0.359214 -0.005433 -0.009021
v -0.336338 -0.015635 0.036527
v -0.413426 -0.139953 -0.066270
v -0.346480 0.001075 0.075831
v -0.420265 0.189244 0.079701
v -0.482637 0.003048 -0.095365
v -0.599234 0.347301 -0.084546
v -0.370634 -0.167761 0.057263
v -0.179537 -0.022811 0.042618
v -0.586255 -0.360460 -0.105274
v -0.166778 0.033822 -0.047429
v -1.269448 0.082309 0.008241
v -0.460496 0.033908 0.037358
v -1.278592 0.090179 -0.001169
v -0.471700 0.040940 0.027882
v -1.285505 0.095228 -0.011763
v -0.478938 0.045351 0.013419
v -1.289920 0.097260 -0.023133
v -0.483379 0.047017 -0.002083
v -1.291669 0.096200 -0.034842
v -0.484853 0.045873 -0.018027
v -1.290684 0.092086 -0.046440
v -0.483304 0.041964 -0.033802
v -1.287003 0.085077 -0.057481
v -0.478790 0.035439 -0.048800
v -1.280767 0.075443 -0.067541
v -0.471486 0.026551 -0.062446
v -1.272217 0.063554 -0.076234
v -0.461672 0.015639 -0.074215
v -1.261680 0.049866 -0.083225
v -0.449726 0.003123 -0.083654
v -1.249562 0.034906 -0.088246
v -0.436701 -0.011082 -0.070270
v -1.236328 0.019248 -0.091103
v -0.421930 -0.025319 -0.074066
v -1.222486 0.003495 -0.091688
v -0.406577 -0.039606 -0.074765
v -1.208569 -0.011749 -0.089977
v -0.391231 -0.053397 -0.072340
v -1.195113 -0.025898 -0.086036
v -0.376482 -0.066159 -0.066884
v -1.182633 -0.038407 -0.080017
v -0.362898 -0.077404 -0.058607
v -1.171609 -0.048796 -0.072151
v -0.350403 -0.086130 -0.067958
v -1.162465 -0.056666 -0.062740
v -0.340648 -0.093117 -0.055089
v -1.155552 -0.061715 -0.052146
v -0.333410 -0.097528 -0.040625
v -1.151137 -0.063748 -0.040776
v -0.328969 -0.099194 -0.025123
v -1.149387 -0.062687 -0.029067
v -0.327495 -0.098050 -0.009178
v -1.150373 -0.058573 -0.017469
v -0.329044 -0.094141 0.006596
v -1.154053 -0.051565 -0.006428
v -0.333558 -0.087617 0.021594
v -1.160289 -0.041931 0.003633
v -0.340862 -0.078728 0.035240
v -1.168840 -0.030041 0.012325
v -0.350675 -0.067816 0.047009
v -1.179377 -0.016353 0.019316
v -0.362622 -0.055301 0.056448
v -1.191495 -0.001393 0.024337
v -0.376548 -0.041708 0.065662
v -1.204730 0.014265 0.027194
v -0.391498 -0.027421 0.068425
v -1.218570 0.030018 0.027779
v -0.406833 -0.013101 0.068060
v -1.232487 0.045262 0.026068
v -0.421965 0.000699 0.064580
v -1.245944 0.059410 0.022127
v -0.436312 0.013451 0.058121
v -1.258425 0.071920 0.016108
v -0.449322 0.024665 0.048929
v -0.415083 -0.397161 0.019660
v -0.365217 0.383896 0.065860
v -0.442836 -0.376881 -0.074451
v -0.435186 0.392899 -0.026841
v -0.284752 -0.370866 0.009971
v -0.280993 0.396497 0.065585
v -0.349118 -0.354331 -0.073675
v -0.338706 0.405293 -0.026623
vt 0.158346 0.826694
vt 0.247644 0.038127
vt 0.238084 0.999713
vt 0.316723 0.818916
vt 0.316723 0.000000
vt 0.246215 0.026598
vt 0.088167 0.973109
vt 0.158346 0.180723
vt 0.158346 1.000000
vt 0.081816 0.177637
vt 0.079585 0.000000
vt 0.000000 0.172986
vt 0.434059 0.348038
vt 0.467556 0.452142
vt 0.399159 0.441271
vt 0.434750 0.175988
vt 0.316723 0.281464
vt 0.373189 0.000000
vt 0.382549 0.837765
vt 0.316723 0.735820
vt 0.382549 0.630068
vt 0.316723 0.457136
vt 0.412747 0.525214
vt 0.654001 0.484418
vt 0.580210 0.600195
vt 0.605322 0.481029
vt 0.650447 0.012770
vt 0.632775 0.408737
vt 0.645606 0.007779
vt 0.625648 0.404564
vt 0.640311 0.003895
vt 0.618111 0.401782
vt 0.634767 0.001269
vt 0.610455 0.400499
vt 0.629186 0.000000
vt 0.623783 0.000138
vt 0.602972 0.400762
vt 0.618766 0.001677
vt 0.595952 0.402563
vt 0.614327 0.004559
vt 0.851681 0.402277
vt 0.845505 0.004525
vt 0.851681 0.000000
vt 0.845812 0.407372
vt 0.838621 0.010103
vt 0.839378 0.413592
vt 0.831293 0.016521
vt 0.833700 0.420590
vt 0.823803 0.023529
vt 0.826889 0.428309
vt 0.816438 0.030861
vt 0.820279 0.436343
vt 0.809483 0.038234
vt 0.814127 0.444385
vt 0.803203 0.045364
vt 0.808668 0.452126
vt 0.797840 0.051978
vt 0.804112 0.459267
vt 0.793601 0.057822
vt 0.579833 0.748186
vt 0.561552 0.345626
vt 0.566579 0.340851
vt 0.573198 0.753335
vt 0.556120 0.349308
vt 0.565931 0.757259
vt 0.550494 0.351754
vt 0.558313 0.759806
vt 0.544889 0.352871
vt 0.543195 0.760435
vt 0.539520 0.352615
vt 0.536277 0.758494
vt 0.534595 0.350998
vt 0.734075 0.407495
vt 0.744696 0.003853
vt 0.739407 0.410837
vt 0.750693 0.009001
vt 0.745679 0.415383
vt 0.757242 0.015246
vt 0.752649 0.420959
vt 0.764251 0.022500
vt 0.760050 0.427351
vt 0.771077 0.030277
vt 0.767598 0.434312
vt 0.777668 0.038244
vt 0.775002 0.441576
vt 0.783770 0.046096
vt 0.781978 0.448864
vt 0.789150 0.053531
vt 0.788258 0.455895
vt 0.586102 0.438588
vt 0.585962 0.430783
vt 0.653987 0.443160
vt 0.793600 0.060263
vt 0.793600 0.462399
vt 0.654650 0.018677
vt 0.637508 0.414736
vt 0.527422 0.305545
vt 0.531086 0.299168
vt 0.577854 0.295495
vt 0.691591 0.776423
vt 0.654650 0.392538
vt 0.668781 0.389894
vt 0.656475 0.008262
vt 0.701072 0.378604
vt 0.654650 0.389894
vt 0.734075 0.000000
vt 0.734075 0.380978
vt 0.733346 0.402316
vt 0.386031 0.657380
vt 0.431442 0.695070
vt 0.382549 0.703747
vt 0.431442 0.658065
vt 0.470104 0.687773
vt 0.436151 0.711912
vt 0.163120 0.000503
vt 0.005388 0.998954
vt 0.522263 0.281464
vt 0.580210 0.281464
vt 0.334030 0.830749
vt 0.522263 0.630068
vt 0.654001 0.706259
vt 0.589663 0.405832
vt 0.799558 0.465642
vt 0.550636 0.760878
vt 0.739480 0.000000
vt 0.643431 0.420832
vt 0.587319 0.423378
vt 0.648267 0.427783
vt 0.651832 0.435322
vt 0.654650 0.450996
vt 0.653795 0.458527
vt 0.649773 0.465308
vt 0.587732 0.446494
vt 0.645635 0.471085
vt 0.590791 0.454196
vt 0.595161 0.461399
vt 0.640320 0.475696
vt 0.634031 0.478965
vt 0.627010 0.480765
vt 0.619528 0.481029
vt 0.611871 0.479745
vt 0.604335 0.476964
vt 0.597207 0.472790
vt 0.590763 0.467387
vt 0.584347 0.410443
vt 0.580210 0.416220
vt 0.535517 0.293483
vt 0.575290 0.290359
vt 0.540544 0.288708
vt 0.571794 0.286254
vt 0.545976 0.285027
vt 0.567501 0.283336
vt 0.551602 0.282581
vt 0.562576 0.281719
vt 0.557207 0.281464
vt 0.579388 0.301463
vt 0.579833 0.308035
vt 0.524666 0.312368
vt 0.579172 0.314958
vt 0.522924 0.319376
vt 0.577430 0.321966
vt 0.522263 0.326299
vt 0.574674 0.328789
vt 0.522708 0.332871
vt 0.571010 0.335166
vt 0.524242 0.338839
vt 0.526806 0.343975
vt 0.530302 0.348081
vt 0.656548 0.773557
vt 0.704294 0.001998
vt 0.733346 0.782758
vt 0.431442 0.630068
vt 0.470104 0.630068
vn 0.0076 -0.1422 0.9898
vn -0.0384 -0.6225 0.7817
vn -0.8696 0.1503 0.4704
vn 0.0410 0.3772 -0.9252
vn -0.0483 0.2671 -0.9625
vn 0.0306 0.0523 -0.9982
vn -0.7470 -0.3051 0.5906
vn 0.1516 -0.0163 -0.9883
vn 0.6878 -0.7238 -0.0543
vn 0.1752 -0.1324 0.9756
vn -0.7817 0.0434 0.6222
vn 0.6208 0.6210 0.4785
vn 0.0249 0.7787 0.6270
vn 0.0437 0.9127 0.4064
vn 0.0574 0.9864 0.1541
vn 0.0640 0.9930 -0.0995
vn 0.0656 0.9422 -0.3286
vn 0.0610 0.8518 -0.5203
vn 0.0525 0.7373 -0.6735
vn 0.0418 0.6091 -0.7920
vn 0.0302 0.4730 -0.8806
vn 0.0186 0.3316 -0.9432
vn 0.0333 0.2066 -0.9779
vn 0.0241 0.0582 -0.9980
vn 0.0155 -0.0976 -0.9951
vn 0.0075 -0.2617 -0.9651
vn -0.0003 -0.4338 -0.9010
vn -0.0083 -0.6092 -0.7930
vn -0.0324 -0.7820 -0.6225
vn -0.0366 -0.9112 -0.4104
vn -0.0407 -0.9862 -0.1605
vn -0.0447 -0.9943 0.0968
vn -0.0505 -0.9426 0.3301
vn -0.0552 -0.8512 0.5219
vn -0.0591 -0.7390 0.6711
vn -0.0618 -0.6176 0.7840
vn -0.0629 -0.4920 0.8683
vn -0.0651 -0.3645 0.9289
vn -0.0610 -0.2288 0.9716
vn -0.0538 -0.0842 0.9950
vn -0.0434 0.0723 0.9964
vn -0.0294 0.2422 0.9698
vn 0.6718 0.7285 -0.1340
vn -0.0120 0.4238 0.9057
vn 0.0079 0.6089 0.7932
vn -0.7372 -0.6541 0.1694
vn -0.9556 0.0438 0.2913
vn -0.0066 0.0618 -0.9981
vn 0.7957 0.0399 -0.6044
vn 0.0869 -0.0644 0.9941
vn 0.2274 -0.9360 -0.2688
vn -0.1449 0.9723 0.1834
vn -0.0015 -0.0581 0.9983
vn 0.0077 -0.1746 0.9846
vn -0.8543 -0.3919 0.3413
vn 0.0302 0.2640 -0.9641
vn -0.0473 0.0573 -0.9972
vn 0.0016 0.3256 -0.9455
vn -0.7714 -0.2792 0.5718
vn 0.1420 0.0791 -0.9867
vn 0.5362 -0.7467 -0.3936
vn 0.2030 0.0595 0.9774
vn -0.6884 0.1771 0.7034
vn 0.5713 0.8063 0.1534
vn 0.0283 0.8185 0.5739
vn 0.0490 0.9619 0.2689
vn 0.0587 0.9942 0.0900
vn 0.0640 0.9950 -0.0773
vn 0.0639 0.9701 -0.2341
vn 0.0607 0.9219 -0.3827
vn 0.0546 0.8498 -0.5243
vn 0.0461 0.7514 -0.6582
vn 0.0355 0.6231 -0.7813
vn -0.0236 -0.6969 -0.7168
vn 0.0360 0.2922 -0.9557
vn 0.0247 0.0753 -0.9969
vn 0.0132 -0.1589 -0.9872
vn 0.0023 -0.3908 -0.9205
vn -0.0076 -0.5987 -0.8009
vn 0.0377 0.7552 -0.6544
vn -0.0352 -0.8892 -0.4561
vn -0.0380 -0.9610 -0.2740
vn -0.0411 -0.9946 -0.0951
vn -0.0447 -0.9961 0.0756
vn -0.0475 -0.9706 0.2359
vn -0.0512 -0.9213 0.3854
vn -0.0552 -0.8499 0.5241
vn -0.0591 -0.7561 0.6518
vn -0.0620 -0.6380 0.7675
vn -0.0649 -0.6046 0.7938
vn -0.0614 -0.2510 0.9660
vn -0.0522 -0.0304 0.9982
vn -0.0376 0.2053 0.9780
vn -0.0189 0.4348 0.9003
vn 0.5396 0.8418 -0.0133
vn 0.7096 0.6921 -0.1324
vn 0.7002 0.7009 -0.1361
vn 0.6919 0.7088 -0.1375
vn 0.6844 0.7166 -0.1343
vn 0.6690 0.7306 -0.1369
vn 0.6781 0.7228 -0.1329
vn 0.6876 0.7254 -0.0310
vn 0.6740 0.7267 -0.1328
vn 0.6617 0.7367 -0.1392
vn 0.6816 0.7174 -0.1440
vn 0.6542 0.7427 -0.1431
vn 0.6473 0.7490 -0.1414
vn 0.6386 0.7572 -0.1372
vn 0.6275 0.7679 -0.1287
vn 0.6134 0.7817 -0.1128
vn 0.5966 0.7980 -0.0852
vn 0.5809 0.8129 -0.0428
vn 0.5761 0.8173 0.0070
vn 0.6770 0.7226 -0.1397
vn 0.6586 0.7402 -0.1354
vn 0.6056 0.7908 -0.0885
vn 0.6848 0.7138 -0.1470
vn 0.6339 0.7651 -0.1135
vn 0.7195 0.6894 -0.0834
vn 0.7113 0.6954 -0.1025
vn 0.7320 0.6810 -0.0210
vn 0.7273 0.6840 -0.0563
vn 0.7293 0.6840 0.0162
vn 0.0017 0.6351 0.7724
vn 0.0214 0.7911 0.6113
vn -0.7373 -0.6540 0.1694
vn -0.7372 -0.6540 0.1694
vn -0.7992 -0.0292 0.6004
vn -0.0057 0.0619 -0.9981
vn 0.8484 0.0211 -0.5290
vn 0.0141 -0.0723 0.9973
vn 0.1655 -0.9355 -0.3123
vn -0.1255 0.9739 0.1893
usemtl Material
s off
f 1/1/1 7/2/1 3/3/1
f 4/4/2 7/2/2 8/5/2
f 7/2/3 6/6/3 8/5/3
f 6/7/4 4/8/4 8/9/4
f 2/10/5 3/11/5 4/8/5
f 6/7/6 1/12/6 2/10/6
f 10/13/7 11/14/7 9/15/7
f 11/16/8 16/17/8 15/18/8
f 16/19/9 13/20/9 15/21/9
f 14/22/10 9/15/10 13/23/10
f 11/14/11 13/23/11 9/15/11
f 16/24/12 10/25/12 14/26/12
f 17/27/13 20/28/13 19/29/13
f 19/29/14 22/30/14 21/31/14
f 21/31/15 24/32/15 23/33/15
f 23/33/16 26/34/16 25/35/16
f 26/34/17 27/36/17 25/35/17
f 28/37/18 29/38/18 27/36/18
f 30/39/19 31/40/19 29/38/19
f 32/41/20 33/42/20 31/43/20
f 34/44/21 35/45/21 33/42/21
f 36/46/22 37/47/22 35/45/22
f 38/48/23 39/49/23 37/47/23
f 40/50/24 41/51/24 39/49/24
f 42/52/25 43/53/25 41/51/25
f 44/54/26 45/55/26 43/53/26
f 46/56/27 47/57/27 45/55/27
f 48/58/28 49/59/28 47/57/28
f 50/60/29 51/61/29 49/62/29
f 52/63/30 53/64/30 51/61/30
f 54/65/31 55/66/31 53/64/31
f 56/67/32 57/68/32 55/66/32
f 57/68/33 60/69/33 59/70/33
f 59/70/34 62/71/34 61/72/34
f 61/73/35 64/74/35 63/75/35
f 63/75/36 66/76/36 65/77/36
f 65/77/37 68/78/37 67/79/37
f 67/79/38 70/80/38 69/81/38
f 69/81/39 72/82/39 71/83/39
f 71/83/40 74/84/40 73/85/40
f 73/85/41 76/86/41 75/87/41
f 75/87/42 78/88/42 77/89/42
f 42/90/43 40/91/43 74/92/43
f 77/89/44 80/93/44 79/94/44
f 79/95/45 18/96/45 17/27/45
f 77/97/46 79/98/46 35/99/46
f 82/100/47 83/101/47 81/102/47
f 84/103/48 87/104/48 83/105/48
f 87/104/49 86/106/49 85/107/49
f 85/108/50 82/100/50 81/102/50
f 87/109/51 81/110/51 83/111/51
f 88/112/52 82/113/52 86/114/52
f 1/1/53 5/115/53 7/2/53
f 4/4/54 3/3/54 7/2/54
f 7/2/55 5/115/55 6/6/55
f 6/7/56 2/10/56 4/8/56
f 2/10/57 1/12/57 3/11/57
f 6/7/58 5/116/58 1/12/58
f 10/13/59 12/117/59 11/14/59
f 11/16/60 12/118/60 16/17/60
f 16/19/61 14/119/61 13/20/61
f 14/22/62 10/13/62 9/15/62
f 11/14/63 15/120/63 13/23/63
f 16/24/64 12/121/64 10/25/64
f 17/27/65 18/96/65 20/28/65
f 19/29/66 20/28/66 22/30/66
f 21/31/67 22/30/67 24/32/67
f 23/33/68 24/32/68 26/34/68
f 26/34/69 28/37/69 27/36/69
f 28/37/70 30/39/70 29/38/70
f 30/39/71 32/122/71 31/40/71
f 32/41/72 34/44/72 33/42/72
f 34/44/73 36/46/73 35/45/73
f 36/46/74 38/48/74 37/47/74
f 38/48/75 40/50/75 39/49/75
f 40/50/76 42/52/76 41/51/76
f 42/52/77 44/54/77 43/53/77
f 44/54/78 46/56/78 45/55/78
f 46/56/79 48/58/79 47/57/79
f 48/58/80 50/123/80 49/59/80
f 50/60/81 52/63/81 51/61/81
f 52/63/82 54/65/82 53/64/82
f 54/65/83 56/67/83 55/66/83
f 56/67/84 58/124/84 57/68/84
f 57/68/85 58/124/85 60/69/85
f 59/70/86 60/69/86 62/71/86
f 61/73/87 62/125/87 64/74/87
f 63/75/88 64/74/88 66/76/88
f 65/77/89 66/76/89 68/78/89
f 67/79/90 68/78/90 70/80/90
f 69/81/91 70/80/91 72/82/91
f 71/83/92 72/82/92 74/84/92
f 73/85/93 74/84/93 76/86/93
f 75/87/94 76/86/94 78/88/94
f 22/30/95 20/28/95 18/96/95
f 18/96/96 80/126/96 38/127/96
f 80/126/97 78/128/97 38/127/97
f 78/128/98 76/129/98 38/127/98
f 76/129/99 74/92/99 40/91/99
f 38/127/100 76/129/100 40/91/100
f 74/92/101 72/130/101 42/90/101
f 72/130/102 70/131/102 68/132/102
f 42/90/103 72/130/103 44/133/103
f 68/132/104 66/134/104 46/135/104
f 46/135/105 66/134/105 48/136/105
f 66/134/106 64/137/106 48/136/106
f 64/137/107 62/138/107 48/136/107
f 62/138/108 60/139/108 48/136/108
f 60/139/109 58/140/109 48/136/109
f 58/140/110 56/141/110 48/136/110
f 56/141/111 54/142/111 48/136/111
f 54/142/112 52/143/112 48/136/112
f 52/143/113 50/144/113 48/136/113
f 46/135/114 44/133/114 68/132/114
f 68/132/115 44/133/115 72/130/115
f 22/30/116 18/96/116 24/32/116
f 26/34/117 18/96/117 38/127/117
f 26/34/118 24/32/118 18/96/118
f 30/39/119 28/37/119 38/127/119
f 28/37/120 26/34/120 38/127/120
f 34/145/121 32/122/121 38/127/121
f 32/122/122 30/39/122 38/127/122
f 38/127/123 36/146/123 34/145/123
f 77/89/124 78/88/124 80/93/124
f 79/95/125 80/126/125 18/96/125
f 79/98/126 17/147/126 33/148/126
f 17/147/127 19/149/127 31/150/127
f 19/149/46 21/151/46 29/152/46
f 21/151/126 23/153/126 27/154/126
f 23/153/126 25/155/126 27/154/126
f 27/154/46 29/152/46 21/151/46
f 29/152/127 31/150/127 19/149/127
f 31/150/46 33/148/46 17/147/46
f 33/148/126 35/99/126 79/98/126
f 35/99/46 37/156/46 77/97/46
f 37/156/126 39/157/126 75/158/126
f 39/157/127 41/159/127 73/160/127
f 41/159/46 43/161/46 71/162/46
f 43/161/126 45/163/126 69/164/126
f 45/163/127 47/165/127 67/166/127
f 47/165/46 49/62/46 65/167/46
f 49/62/126 51/61/126 63/168/126
f 51/61/127 53/64/127 61/72/127
f 53/64/126 55/66/126 59/70/126
f 55/66/46 57/68/46 59/70/46
f 59/70/126 61/72/126 53/64/126
f 61/72/46 63/168/46 51/61/46
f 63/168/46 65/167/46 49/62/46
f 65/167/126 67/166/126 47/165/126
f 67/166/127 69/164/127 45/163/127
f 69/164/127 71/162/127 43/161/127
f 71/162/126 73/160/126 41/159/126
f 73/160/127 75/158/127 39/157/127
f 75/158/126 77/97/126 37/156/126
f 82/100/128 84/169/128 83/101/128
f 84/103/129 88/170/129 87/104/129
f 87/104/130 88/170/130 86/106/130
f 85/108/131 86/171/131 82/100/131
f 87/109/132 85/172/132 81/110/132
f 88/112/133 84/173/133 82/113/133
