# Blender v2.91.2 OBJ File: 'espada.blend'
# www.blender.org
mtllib espada.mtl
o Cube
v 1.256799 0.158995 0.003762
v 1.243253 -0.010367 0.039863
v 1.601824 -0.006013 0.023090
v 1.240060 -0.160333 0.035018
v -0.408310 0.159939 0.001310
v -0.359214 -0.005433 -0.009021
v -0.336338 -0.015635 0.036527
v -0.409854 -0.139953 -0.029838
v -0.346480 0.001075 0.075831
v -0.420265 0.189244 0.079701
v -0.482637 0.003048 -0.095365
v -0.599234 0.347301 -0.084546
v -0.370634 -0.167761 0.057263
v -0.179537 -0.022811 0.042618
v -0.586255 -0.360460 -0.105274
v -0.166778 0.033822 -0.047429
v -1.101978 0.078967 0.003318
v -0.392616 0.036525 0.028851
v -1.109997 0.085868 -0.004934
v -0.402440 0.042691 0.020541
v -1.116058 0.090296 -0.014224
v -0.408787 0.046559 0.007859
v -1.119930 0.092078 -0.024194
v -0.412681 0.048020 -0.005735
v -1.121464 0.091148 -0.034461
v -0.413974 0.047017 -0.019716
v -1.120600 0.087541 -0.044631
v -0.412615 0.043589 -0.033549
v -1.117373 0.081395 -0.054313
v -0.408657 0.037868 -0.046701
v -1.111905 0.072947 -0.063135
v -0.402253 0.030073 -0.058666
v -1.104406 0.062521 -0.070758
v -0.393647 0.020505 -0.068987
v -1.095167 0.050518 -0.076888
v -0.383171 0.009530 -0.077264
v -1.084540 0.037400 -0.081290
v -0.371750 -0.002927 -0.065528
v -1.072936 0.023670 -0.083796
v -0.358797 -0.015410 -0.068857
v -1.060799 0.009856 -0.084309
v -0.345334 -0.027939 -0.069469
v -1.048595 -0.003512 -0.082808
v -0.331877 -0.040032 -0.067343
v -1.036795 -0.015918 -0.079353
v -0.318944 -0.051223 -0.062558
v -1.025851 -0.026887 -0.074074
v -0.307032 -0.061083 -0.055300
v -1.016184 -0.035998 -0.067177
v -0.296076 -0.068736 -0.063500
v -1.008166 -0.042899 -0.058924
v -0.287521 -0.074863 -0.052215
v -1.002104 -0.047326 -0.049635
v -0.281175 -0.078731 -0.039532
v -0.998232 -0.049109 -0.039664
v -0.277280 -0.080191 -0.025939
v -0.996699 -0.048178 -0.029397
v -0.275988 -0.079188 -0.011957
v -0.997563 -0.044571 -0.019227
v -0.277346 -0.075760 0.001876
v -1.000790 -0.038425 -0.009545
v -0.281304 -0.070039 0.015027
v -1.006258 -0.029977 -0.000723
v -0.287709 -0.062245 0.026993
v -1.013756 -0.019551 0.006899
v -0.296314 -0.052676 0.037313
v -1.022996 -0.007549 0.013030
v -0.306791 -0.041702 0.045591
v -1.033623 0.005570 0.017432
v -0.319002 -0.029782 0.053670
v -1.045228 0.019300 0.019938
v -0.332111 -0.017254 0.056093
v -1.057365 0.033114 0.020451
v -0.345559 -0.004697 0.055773
v -1.069568 0.046481 0.018950
v -0.358828 0.007405 0.052722
v -1.081368 0.058888 0.015494
v -0.371408 0.018587 0.047057
v -1.092312 0.069857 0.010216
v -0.382817 0.028420 0.038997
v -0.415083 -0.397161 0.019660
v -0.365217 0.383896 0.065860
v -0.442836 -0.376881 -0.074451
v -0.435186 0.392899 -0.026841
v -0.284752 -0.370866 0.009971
v -0.280993 0.396497 0.065585
v -0.349118 -0.354331 -0.073675
v -0.338706 0.405293 -0.026623
v -0.346480 0.001075 0.075831
v -0.420265 0.189244 0.079701
v -0.370634 -0.167761 0.057263
v -0.482637 0.003048 -0.095365
v -0.346480 0.001075 0.075831
v -0.420265 0.189244 0.079701
v -0.599234 0.347301 -0.084546
v -0.586255 -0.360460 -0.105274
v -0.370634 -0.167761 0.057263
v -0.420265 0.189244 0.079701
v -0.599234 0.347301 -0.084546
v -0.482637 0.003048 -0.095365
v -0.346480 0.001075 0.075831
v -0.420265 0.189244 0.079701
v -0.599234 0.347301 -0.084546
v -0.586255 -0.360460 -0.105274
v -0.370634 -0.167761 0.057263
v -0.482637 0.003048 -0.095365
v -0.346480 0.001075 0.075831
v -0.482637 0.003048 -0.095365
v -0.346480 0.001075 0.075831
v -0.482637 0.003048 -0.095365
v -0.346511 0.001076 0.075792
v -0.346480 0.001075 0.075831
v -0.482606 0.003047 -0.095326
v -0.482637 0.003048 -0.095365
v -0.346480 0.001075 0.075831
v -0.420265 0.189244 0.079701
v -0.599234 0.347301 -0.084546
v -0.586255 -0.360460 -0.105274
v -0.370634 -0.167761 0.057263
v -0.346511 0.001076 0.075792
v -0.482606 0.003047 -0.095326
v -0.346511 0.001076 0.075792
v -0.482606 0.003047 -0.095326
v -0.402440 0.042691 0.020541
v -0.392616 0.036525 0.028851
v -0.408787 0.046559 0.007859
v -0.412681 0.048020 -0.005735
v -0.413974 0.047017 -0.019716
v -0.412615 0.043589 -0.033549
v -0.408657 0.037868 -0.046701
v -0.402253 0.030073 -0.058666
v -0.393647 0.020505 -0.068987
v -0.383171 0.009530 -0.077264
v -0.371750 -0.002927 -0.065528
v -0.358797 -0.015410 -0.068857
v -0.345334 -0.027939 -0.069469
v -0.331877 -0.040032 -0.067343
v -0.318944 -0.051223 -0.062558
v -0.307032 -0.061083 -0.055300
v -0.296076 -0.068736 -0.063500
v -0.287521 -0.074863 -0.052215
v -0.281175 -0.078731 -0.039532
v -0.277280 -0.080191 -0.025939
v -0.275988 -0.079188 -0.011957
v -0.277346 -0.075760 0.001876
v -0.281304 -0.070039 0.015027
v -0.287709 -0.062245 0.026993
v -0.296314 -0.052676 0.037313
v -0.306791 -0.041702 0.045591
v -0.319002 -0.029782 0.053670
v -0.332111 -0.017254 0.056093
v -0.345559 -0.004697 0.055773
v -0.358828 0.007405 0.052722
v -0.371408 0.018587 0.047057
v -0.382817 0.028420 0.038997
vt 0.191567 0.826694
vt 0.280864 0.038127
vt 0.271305 0.999713
vt 0.349943 0.818916
vt 0.349943 0.000000
vt 0.279436 0.026598
vt 0.088167 0.973109
vt 0.158346 0.180723
vt 0.158346 1.000000
vt 0.081816 0.177637
vt 0.079585 0.000000
vt 0.000000 0.172986
vt 0.571620 0.601212
vt 0.571620 0.601212
vt 0.571620 0.601212
vt 0.803697 0.875127
vt 0.685669 0.980602
vt 0.742135 0.699138
vt 0.974587 0.739883
vt 0.908761 0.637938
vt 0.974587 0.532185
vt 0.889226 0.657751
vt 0.844712 0.728927
vt 0.773984 0.681718
vt 0.571620 0.601212
vt 0.571620 0.601212
vt 0.972319 0.761903
vt 0.898528 0.877681
vt 0.923640 0.758514
vt 0.816318 0.040674
vt 0.798646 0.436641
vt 0.811477 0.035682
vt 0.791519 0.432468
vt 0.806182 0.031799
vt 0.783982 0.429686
vt 0.800638 0.029172
vt 0.776325 0.428402
vt 0.795057 0.027904
vt 0.789654 0.028041
vt 0.768843 0.428666
vt 0.784636 0.029581
vt 0.761823 0.430467
vt 0.780198 0.032463
vt 0.979618 0.417779
vt 0.973442 0.020027
vt 0.979618 0.015502
vt 0.973749 0.422874
vt 0.966558 0.025605
vt 0.967315 0.429094
vt 0.959230 0.032022
vt 0.961637 0.436092
vt 0.951740 0.039031
vt 0.954826 0.443811
vt 0.944376 0.046363
vt 0.948216 0.451845
vt 0.937420 0.053736
vt 0.942064 0.459887
vt 0.931140 0.060866
vt 0.936605 0.467628
vt 0.925777 0.067480
vt 0.932049 0.474769
vt 0.921538 0.073324
vt 0.730292 0.436597
vt 0.712010 0.034037
vt 0.717038 0.029262
vt 0.723656 0.441746
vt 0.706578 0.037718
vt 0.716389 0.445669
vt 0.700952 0.040164
vt 0.708771 0.448216
vt 0.695347 0.041281
vt 0.693653 0.448846
vt 0.689978 0.041026
vt 0.686735 0.446905
vt 0.685053 0.039409
vt 0.844960 0.421447
vt 0.855581 0.017805
vt 0.850292 0.424788
vt 0.861578 0.022953
vt 0.856563 0.429335
vt 0.868127 0.029198
vt 0.863534 0.434911
vt 0.875136 0.036452
vt 0.870935 0.441302
vt 0.881962 0.044228
vt 0.878483 0.448264
vt 0.888553 0.052196
vt 0.885887 0.455528
vt 0.894655 0.060048
vt 0.892863 0.462816
vt 0.900035 0.067482
vt 0.899143 0.469846
vt 0.755534 0.433735
vt 0.761823 0.430467
vt 0.755534 0.433735
vt 0.904485 0.074215
vt 0.904485 0.476350
vt 0.820521 0.046581
vt 0.803378 0.442640
vt 0.608121 0.164477
vt 0.611785 0.158100
vt 0.658554 0.154427
vt 0.433405 0.985601
vt 0.396464 0.601716
vt 0.410594 0.599072
vt 0.493990 0.609502
vt 0.538587 0.979844
vt 0.492165 0.991133
vt 0.571591 0.601240
vt 0.571591 0.982217
vt 0.475160 0.611494
vt 0.420090 0.540447
vt 0.465502 0.578137
vt 0.416608 0.586814
vt 0.515941 0.547714
vt 0.554603 0.577421
vt 0.520650 0.601561
vt 0.571620 0.601212
vt 0.571620 0.601212
vt 0.571620 0.601212
vt 0.571620 0.601212
vt 0.571620 0.601212
vt 0.571620 0.601212
vt 0.571620 0.601212
vt 0.571620 0.601212
vt 0.571620 0.601212
vt 0.571620 0.601212
vt 0.571620 0.601212
vt 0.571620 0.601212
vt 0.571620 0.601212
vt 0.571620 0.601212
vt 0.571620 0.601212
vt 0.571620 0.601212
vt 0.756390 0.580489
vt 0.729466 0.686484
vt 0.677294 0.640938
vt 0.644213 0.719276
vt 0.571620 0.601212
vt 0.571620 0.601212
vt 0.677294 0.640938
vt 0.729466 0.686484
vt 0.677294 0.640938
vt 0.729466 0.686484
vt 0.729455 0.686473
vt 0.677306 0.640949
vt 0.866485 0.570942
vt 0.729466 0.686484
vt 0.866485 0.570942
vt 0.756390 0.580489
vt 0.677294 0.640938
vt 0.729455 0.686473
vt 0.677306 0.640949
vt 0.571620 0.601212
vt 0.571620 0.601212
vt 0.571620 0.601212
vt 0.571620 0.601212
vt 0.729455 0.686473
vt 0.677306 0.640949
vt 0.600053 0.074292
vt 0.599914 0.066487
vt 0.667939 0.078864
vt 0.927495 0.481144
vt 0.932049 0.474769
vt 0.927495 0.481144
vt 0.861578 0.022953
vt 0.868127 0.029198
vt 0.791519 0.432468
vt 0.783982 0.429686
vt 0.954826 0.443811
vt 0.948216 0.451845
vt 0.701094 0.449289
vt 0.693653 0.448846
vt 0.894655 0.060048
vt 0.900035 0.067482
vt 0.979618 0.417779
vt 0.973749 0.422874
vt 0.730292 0.436597
vt 0.723656 0.441746
vt 0.875136 0.036452
vt 0.776325 0.428402
vt 0.942064 0.459887
vt 0.686735 0.446905
vt 0.904485 0.074215
vt 0.967315 0.429094
vt 0.716389 0.445669
vt 0.881962 0.044228
vt 0.768843 0.428666
vt 0.936605 0.467628
vt 0.850365 0.013952
vt 0.855581 0.017805
vt 0.803378 0.442640
vt 0.798646 0.436641
vt 0.809302 0.448735
vt 0.961637 0.436092
vt 0.708771 0.448216
vt 0.888553 0.052196
vt 0.701094 0.449289
vt 0.196341 0.000503
vt 0.005388 0.998954
vt 0.949156 0.980602
vt 0.926068 0.732866
vt 0.889226 0.817971
vt 0.972319 0.983744
vt 0.850365 0.013952
vt 0.809302 0.448735
vt 0.616216 0.152415
vt 0.655990 0.149292
vt 0.621244 0.147640
vt 0.652494 0.145186
vt 0.626675 0.143959
vt 0.648200 0.142268
vt 0.632302 0.141513
vt 0.643275 0.140651
vt 0.637907 0.140396
vt 0.660088 0.160396
vt 0.660533 0.166967
vt 0.605365 0.171300
vt 0.659872 0.173890
vt 0.603623 0.178308
vt 0.658130 0.180899
vt 0.602962 0.185231
vt 0.655374 0.187722
vt 0.603407 0.191803
vt 0.651710 0.194098
vt 0.604941 0.197772
vt 0.647279 0.199783
vt 0.607505 0.202907
vt 0.642251 0.204558
vt 0.611001 0.207013
vt 0.636820 0.208240
vt 0.615294 0.209930
vt 0.631193 0.210686
vt 0.620220 0.211548
vt 0.625588 0.211803
vt 0.398362 0.982736
vt 0.541809 0.603238
vt 0.475160 0.991936
vt 0.465502 0.513135
vt 0.554603 0.519717
vt 0.681296 0.866289
vt 0.677294 0.640938
vt 0.729466 0.686484
vt 0.639600 0.040268
vt 0.646727 0.044441
vt 0.651459 0.050440
vt 0.657382 0.056536
vt 0.601271 0.059082
vt 0.662219 0.063487
vt 0.665784 0.071026
vt 0.668602 0.086699
vt 0.667747 0.094231
vt 0.663725 0.101012
vt 0.601684 0.082198
vt 0.659587 0.106789
vt 0.604743 0.089900
vt 0.609113 0.097103
vt 0.654271 0.111400
vt 0.647982 0.114669
vt 0.640962 0.116469
vt 0.633480 0.116733
vt 0.625823 0.115449
vt 0.618286 0.112667
vt 0.611159 0.108494
vt 0.604715 0.103091
vt 0.632063 0.037486
vt 0.624406 0.036203
vt 0.609903 0.038267
vt 0.616924 0.036466
vt 0.598299 0.046147
vt 0.603615 0.041536
vt 0.594161 0.051923
vn 0.0062 0.1292 0.9916
vn -0.0406 -0.4517 0.8912
vn -0.8437 0.2436 0.4783
vn 0.0406 0.1379 -0.9896
vn -0.0471 0.0333 -0.9983
vn 0.0292 -0.2106 -0.9771
vn 0.0000 0.0000 1.0000
vn 0.1516 -0.0163 -0.9883
vn 0.6878 -0.7238 -0.0543
vn 0.1752 -0.1324 0.9756
vn 0.6208 0.6210 0.4785
vn 0.0249 0.7787 0.6270
vn 0.0437 0.9127 0.4064
vn 0.0574 0.9864 0.1541
vn 0.0640 0.9930 -0.0995
vn 0.0656 0.9422 -0.3286
vn 0.0610 0.8518 -0.5203
vn 0.0525 0.7373 -0.6735
vn 0.0418 0.6091 -0.7920
vn 0.0302 0.4730 -0.8806
vn 0.0186 0.3316 -0.9432
vn 0.0333 0.2066 -0.9779
vn 0.0241 0.0582 -0.9980
vn 0.0155 -0.0976 -0.9951
vn 0.0075 -0.2617 -0.9651
vn -0.0003 -0.4338 -0.9010
vn -0.0083 -0.6092 -0.7930
vn -0.0324 -0.7820 -0.6225
vn -0.0366 -0.9112 -0.4104
vn -0.0407 -0.9862 -0.1605
vn -0.0447 -0.9943 0.0968
vn -0.0505 -0.9426 0.3301
vn -0.0552 -0.8512 0.5219
vn -0.0591 -0.7390 0.6711
vn -0.0618 -0.6176 0.7840
vn -0.0629 -0.4920 0.8683
vn -0.0651 -0.3645 0.9289
vn -0.0610 -0.2288 0.9715
vn -0.0538 -0.0842 0.9950
vn -0.0434 0.0723 0.9964
vn -0.0294 0.2422 0.9698
vn -0.0120 0.4238 0.9057
vn 0.0079 0.6089 0.7932
vn -0.7372 -0.6541 0.1694
vn -0.9556 0.0438 0.2913
vn -0.0066 0.0618 -0.9981
vn 0.7957 0.0399 -0.6044
vn 0.0869 -0.0644 0.9941
vn 0.2274 -0.9360 -0.2688
vn -0.1449 0.9723 0.1834
vn -0.7470 -0.3051 0.5906
vn -0.7817 0.0434 0.6222
vn -0.7573 0.0000 0.6530
vn 0.6718 0.7285 -0.1340
vn -0.0013 0.1961 0.9806
vn 0.0066 0.0616 0.9981
vn -0.8806 -0.2851 0.3784
vn 0.0306 0.0316 -0.9990
vn -0.0432 -0.2050 -0.9778
vn 0.0015 0.0628 -0.9980
vn 0.1420 0.0791 -0.9867
vn 0.5362 -0.7467 -0.3936
vn 0.2030 0.0595 0.9774
vn 0.5713 0.8063 0.1534
vn 0.0283 0.8185 0.5739
vn 0.0490 0.9619 0.2689
vn 0.0587 0.9942 0.0900
vn 0.0640 0.9950 -0.0773
vn 0.0639 0.9701 -0.2341
vn 0.0607 0.9219 -0.3827
vn 0.0546 0.8498 -0.5243
vn 0.0461 0.7514 -0.6583
vn 0.0355 0.6231 -0.7813
vn -0.0236 -0.6969 -0.7168
vn 0.0360 0.2922 -0.9557
vn 0.0247 0.0753 -0.9969
vn 0.0132 -0.1589 -0.9872
vn 0.0023 -0.3908 -0.9205
vn -0.0076 -0.5987 -0.8009
vn 0.0377 0.7552 -0.6544
vn -0.0352 -0.8892 -0.4561
vn -0.0380 -0.9610 -0.2740
vn -0.0411 -0.9946 -0.0951
vn -0.0447 -0.9961 0.0756
vn -0.0475 -0.9706 0.2359
vn -0.0512 -0.9213 0.3854
vn -0.0552 -0.8499 0.5241
vn -0.0591 -0.7561 0.6518
vn -0.0620 -0.6380 0.7675
vn -0.0649 -0.6046 0.7938
vn -0.0614 -0.2510 0.9660
vn -0.0522 -0.0304 0.9982
vn -0.0376 0.2053 0.9780
vn -0.0189 0.4348 0.9003
vn 0.0017 0.6351 0.7724
vn 0.0214 0.7911 0.6113
vn -0.7373 -0.6540 0.1694
vn -0.7372 -0.6540 0.1694
vn -0.7992 -0.0292 0.6004
vn -0.0057 0.0619 -0.9981
vn 0.8484 0.0211 -0.5290
vn 0.0141 -0.0723 0.9973
vn 0.1655 -0.9355 -0.3123
vn -0.1255 0.9739 0.1893
vn -0.7714 -0.2792 0.5718
vn -0.6884 0.1771 0.7034
vn 0.7583 0.0000 -0.6519
vn 0.5396 0.8418 -0.0133
vn 0.7096 0.6921 -0.1324
vn 0.7002 0.7009 -0.1361
vn 0.6919 0.7088 -0.1375
vn 0.6844 0.7166 -0.1343
vn 0.6690 0.7306 -0.1369
vn 0.6781 0.7228 -0.1329
vn 0.6876 0.7254 -0.0310
vn 0.6740 0.7267 -0.1328
vn 0.6617 0.7367 -0.1392
vn 0.6816 0.7174 -0.1440
vn 0.6542 0.7427 -0.1431
vn 0.6473 0.7490 -0.1414
vn 0.6386 0.7572 -0.1372
vn 0.6275 0.7679 -0.1287
vn 0.6134 0.7817 -0.1128
vn 0.5966 0.7980 -0.0852
vn 0.5809 0.8129 -0.0427
vn 0.5761 0.8173 0.0070
vn 0.6770 0.7226 -0.1397
vn 0.6586 0.7402 -0.1354
vn 0.6056 0.7908 -0.0885
vn 0.6848 0.7138 -0.1470
vn 0.6339 0.7651 -0.1135
vn 0.7195 0.6894 -0.0834
vn 0.7113 0.6954 -0.1025
vn 0.7320 0.6810 -0.0210
vn 0.7273 0.6840 -0.0563
vn 0.7293 0.6840 0.0162
usemtl Material
s off
f 1/1/1 7/2/1 3/3/1
f 4/4/2 7/2/2 8/5/2
f 7/2/3 6/6/3 8/5/3
f 6/7/4 4/8/4 8/9/4
f 2/10/5 3/11/5 4/8/5
f 6/7/6 1/12/6 2/10/6
f 13/13/7 93/14/7 97/15/7
f 11/16/8 16/17/8 15/18/8
f 16/19/9 13/20/9 15/21/9
f 14/22/10 9/23/10 13/24/10
f 9/25/7 94/26/7 93/14/7
f 16/27/11 10/28/11 14/29/11
f 17/30/12 20/31/12 19/32/12
f 19/32/13 22/33/13 21/34/13
f 21/34/14 24/35/14 23/36/14
f 23/36/15 26/37/15 25/38/15
f 26/37/16 27/39/16 25/38/16
f 28/40/17 29/41/17 27/39/17
f 30/42/18 31/43/18 29/41/18
f 32/44/19 33/45/19 31/46/19
f 34/47/20 35/48/20 33/45/20
f 36/49/21 37/50/21 35/48/21
f 38/51/22 39/52/22 37/50/22
f 40/53/23 41/54/23 39/52/23
f 42/55/24 43/56/24 41/54/24
f 44/57/25 45/58/25 43/56/25
f 46/59/26 47/60/26 45/58/26
f 48/61/27 49/62/27 47/60/27
f 50/63/28 51/64/28 49/65/28
f 52/66/29 53/67/29 51/64/29
f 54/68/30 55/69/30 53/67/30
f 56/70/31 57/71/31 55/69/31
f 57/71/32 60/72/32 59/73/32
f 59/73/33 62/74/33 61/75/33
f 61/76/34 64/77/34 63/78/34
f 63/78/35 66/79/35 65/80/35
f 65/80/36 68/81/36 67/82/36
f 67/82/37 70/83/37 69/84/37
f 69/84/38 72/85/38 71/86/38
f 71/86/39 74/87/39 73/88/39
f 73/88/40 76/89/40 75/90/40
f 75/90/41 78/91/41 77/92/41
f 32/93/7 130/94/7 131/95/7
f 77/92/42 80/96/42 79/97/42
f 79/98/43 18/99/43 17/30/43
f 77/100/44 79/101/44 35/102/44
f 82/103/45 83/104/45 81/105/45
f 84/106/46 87/107/46 83/108/46
f 87/107/47 86/109/47 85/110/47
f 85/111/48 82/103/48 81/105/48
f 87/112/49 81/113/49 83/114/49
f 88/115/50 82/116/50 86/117/50
f 9/25/7 91/118/7 89/119/7
f 9/25/7 90/120/7 89/119/7
f 92/121/7 104/122/7 100/123/7
f 97/15/7 101/124/7 105/125/7
f 11/126/7 96/127/7 92/121/7
f 10/128/7 95/129/7 94/26/7
f 15/130/7 97/15/7 96/127/7
f 12/131/7 92/121/7 95/129/7
f 94/26/7 99/132/7 98/133/7
f 102/134/51 100/135/51 101/136/51
f 100/135/52 105/137/52 101/136/52
f 94/26/7 103/138/7 102/139/7
f 96/127/7 105/125/7 104/122/7
f 95/129/7 100/123/7 103/138/7
f 93/14/7 102/139/7 101/124/7
f 100/135/7 107/140/7 106/141/7
f 106/141/7 109/142/7 108/143/7
f 109/142/53 113/144/53 111/145/53
f 103/146/7 114/147/7 117/148/7
f 101/136/7 116/149/7 115/150/7
f 111/145/7 121/151/7 120/152/7
f 101/124/7 119/153/7 115/154/7
f 104/122/7 114/155/7 118/156/7
f 120/152/7 123/157/7 122/158/7
f 136/159/54 135/160/54 152/161/54
f 50/162/7 139/163/7 140/164/7
f 68/81/7 148/165/7 149/166/7
f 24/35/7 126/167/7 127/168/7
f 42/55/7 135/169/7 136/170/7
f 60/72/7 144/171/7 145/172/7
f 78/91/7 153/173/7 154/174/7
f 34/47/7 131/175/7 132/176/7
f 52/66/7 140/177/7 141/178/7
f 70/83/7 149/166/7 150/179/7
f 26/37/7 127/168/7 128/180/7
f 44/57/7 136/170/7 137/181/7
f 62/74/7 145/172/7 146/182/7
f 80/96/7 154/174/7 155/183/7
f 36/49/7 132/176/7 133/184/7
f 54/68/7 141/178/7 142/185/7
f 72/85/7 150/179/7 151/186/7
f 28/40/7 128/180/7 129/187/7
f 46/59/7 137/181/7 138/188/7
f 64/77/7 146/189/7 147/190/7
f 20/31/7 125/191/7 124/192/7
f 18/99/7 155/193/7 125/191/7
f 38/51/7 133/184/7 134/194/7
f 56/70/7 142/185/7 143/195/7
f 74/87/7 151/186/7 152/196/7
f 30/42/7 129/187/7 130/94/7
f 48/61/7 138/188/7 139/163/7
f 66/79/7 147/190/7 148/165/7
f 22/33/7 124/192/7 126/167/7
f 40/53/7 134/194/7 135/169/7
f 58/197/7 143/195/7 144/171/7
f 76/89/7 152/196/7 153/173/7
f 1/1/55 5/198/55 7/2/55
f 4/4/56 3/3/56 7/2/56
f 7/2/57 5/198/57 6/6/57
f 6/7/58 2/10/58 4/8/58
f 2/10/59 1/12/59 3/11/59
f 6/7/60 5/199/60 1/12/60
f 13/13/7 9/25/7 93/14/7
f 11/16/61 12/200/61 16/17/61
f 16/19/62 14/201/62 13/20/62
f 14/22/63 10/202/63 9/23/63
f 9/25/7 10/128/7 94/26/7
f 16/27/64 12/203/64 10/28/64
f 17/30/65 18/99/65 20/31/65
f 19/32/66 20/31/66 22/33/66
f 21/34/67 22/33/67 24/35/67
f 23/36/68 24/35/68 26/37/68
f 26/37/69 28/40/69 27/39/69
f 28/40/70 30/42/70 29/41/70
f 30/42/71 32/93/71 31/43/71
f 32/44/72 34/47/72 33/45/72
f 34/47/73 36/49/73 35/48/73
f 36/49/74 38/51/74 37/50/74
f 38/51/75 40/53/75 39/52/75
f 40/53/76 42/55/76 41/54/76
f 42/55/77 44/57/77 43/56/77
f 44/57/78 46/59/78 45/58/78
f 46/59/79 48/61/79 47/60/79
f 48/61/80 50/162/80 49/62/80
f 50/63/81 52/66/81 51/64/81
f 52/66/82 54/68/82 53/67/82
f 54/68/83 56/70/83 55/69/83
f 56/70/84 58/197/84 57/71/84
f 57/71/85 58/197/85 60/72/85
f 59/73/86 60/72/86 62/74/86
f 61/76/87 62/204/87 64/77/87
f 63/78/88 64/77/88 66/79/88
f 65/80/89 66/79/89 68/81/89
f 67/82/90 68/81/90 70/83/90
f 69/84/91 70/83/91 72/85/91
f 71/86/92 72/85/92 74/87/92
f 73/88/93 74/87/93 76/89/93
f 75/90/94 76/89/94 78/91/94
f 32/93/7 30/42/7 130/94/7
f 77/92/95 78/91/95 80/96/95
f 79/98/96 80/205/96 18/99/96
f 79/101/97 17/206/97 33/207/97
f 17/206/44 19/208/44 31/209/44
f 19/208/97 21/210/97 29/211/97
f 21/210/97 23/212/97 27/213/97
f 23/212/44 25/214/44 27/213/44
f 27/213/97 29/211/97 21/210/97
f 29/211/44 31/209/44 19/208/44
f 31/209/44 33/207/44 17/206/44
f 33/207/97 35/102/97 79/101/97
f 35/102/44 37/215/44 77/100/44
f 37/215/97 39/216/97 75/217/97
f 39/216/44 41/218/44 73/219/44
f 41/218/44 43/220/44 71/221/44
f 43/220/97 45/222/97 69/223/97
f 45/222/98 47/224/98 67/225/98
f 47/224/98 49/226/98 65/227/98
f 49/226/97 51/228/97 63/229/97
f 51/228/44 53/230/44 61/231/44
f 53/230/97 55/232/97 59/233/97
f 55/232/44 57/234/44 59/233/44
f 59/233/97 61/231/97 53/230/97
f 61/231/44 63/229/44 51/228/44
f 63/229/44 65/227/44 49/226/44
f 65/227/97 67/225/97 47/224/97
f 67/225/98 69/223/98 45/222/98
f 69/223/44 71/221/44 43/220/44
f 71/221/97 73/219/97 41/218/97
f 73/219/97 75/217/97 39/216/97
f 75/217/98 77/100/98 37/215/98
f 82/103/99 84/235/99 83/104/99
f 84/106/100 88/236/100 87/107/100
f 87/107/101 88/236/101 86/109/101
f 85/111/102 86/237/102 82/103/102
f 87/112/103 85/238/103 81/113/103
f 88/115/104 84/239/104 82/116/104
f 9/25/7 13/13/7 91/118/7
f 9/25/7 10/128/7 90/120/7
f 92/121/7 96/127/7 104/122/7
f 97/15/7 93/14/7 101/124/7
f 11/126/7 15/130/7 96/127/7
f 10/128/7 12/131/7 95/129/7
f 15/130/7 13/13/7 97/15/7
f 12/131/7 11/126/7 92/121/7
f 94/26/7 95/129/7 99/132/7
f 102/134/105 103/146/105 100/135/105
f 100/135/106 104/240/106 105/137/106
f 94/26/7 95/129/7 103/138/7
f 96/127/7 97/15/7 105/125/7
f 95/129/7 92/121/7 100/123/7
f 93/14/7 94/26/7 102/139/7
f 100/135/7 101/136/7 107/140/7
f 106/141/7 107/140/7 109/142/7
f 109/142/7 112/241/7 113/144/7
f 111/145/7 110/242/7 108/143/7
f 111/145/107 108/143/107 109/142/107
f 103/146/7 100/135/7 114/147/7
f 101/136/7 102/134/7 116/149/7
f 111/145/7 113/144/7 121/151/7
f 101/124/7 105/125/7 119/153/7
f 104/122/7 100/123/7 114/155/7
f 120/152/7 121/151/7 123/157/7
f 126/243/108 124/244/108 125/245/108
f 125/245/109 155/246/109 134/247/109
f 155/246/110 154/248/110 134/247/110
f 154/248/111 153/249/111 134/247/111
f 153/249/112 152/161/112 135/160/112
f 134/247/113 153/249/113 135/160/113
f 152/161/114 151/250/114 136/159/114
f 151/250/115 150/251/115 149/252/115
f 136/159/116 151/250/116 137/253/116
f 149/252/117 148/254/117 138/255/117
f 138/255/118 148/254/118 139/256/118
f 148/254/119 147/257/119 139/256/119
f 147/257/120 146/258/120 139/256/120
f 146/258/121 145/259/121 139/256/121
f 145/259/122 144/260/122 139/256/122
f 144/260/123 143/261/123 139/256/123
f 143/261/124 142/262/124 139/256/124
f 142/262/125 141/263/125 139/256/125
f 141/263/126 140/264/126 139/256/126
f 138/255/127 137/253/127 149/252/127
f 149/252/128 137/253/128 151/250/128
f 126/243/129 125/245/129 127/265/129
f 128/266/130 125/245/130 134/247/130
f 128/266/131 127/265/131 125/245/131
f 130/267/132 129/268/132 134/247/132
f 129/268/133 128/266/133 134/247/133
f 132/269/134 131/270/134 134/247/134
f 131/270/135 130/267/135 134/247/135
f 134/247/136 133/271/136 132/269/136
f 50/162/7 48/61/7 139/163/7
f 68/81/7 66/79/7 148/165/7
f 24/35/7 22/33/7 126/167/7
f 42/55/7 40/53/7 135/169/7
f 60/72/7 58/197/7 144/171/7
f 78/91/7 76/89/7 153/173/7
f 34/47/7 32/44/7 131/175/7
f 52/66/7 50/63/7 140/177/7
f 70/83/7 68/81/7 149/166/7
f 26/37/7 24/35/7 127/168/7
f 44/57/7 42/55/7 136/170/7
f 62/74/7 60/72/7 145/172/7
f 80/96/7 78/91/7 154/174/7
f 36/49/7 34/47/7 132/176/7
f 54/68/7 52/66/7 141/178/7
f 72/85/7 70/83/7 150/179/7
f 28/40/7 26/37/7 128/180/7
f 46/59/7 44/57/7 137/181/7
f 64/77/7 62/204/7 146/189/7
f 20/31/7 18/99/7 125/191/7
f 18/99/7 80/205/7 155/193/7
f 38/51/7 36/49/7 133/184/7
f 56/70/7 54/68/7 142/185/7
f 74/87/7 72/85/7 151/186/7
f 30/42/7 28/40/7 129/187/7
f 48/61/7 46/59/7 138/188/7
f 66/79/7 64/77/7 147/190/7
f 22/33/7 20/31/7 124/192/7
f 40/53/7 38/51/7 134/194/7
f 58/197/7 56/70/7 143/195/7
f 76/89/7 74/87/7 152/196/7
